<svg width="151" height="151" viewBox="0 0 151 151" fill="none" xmlns="http://www.w3.org/2000/svg">
<path d="M51.9319 39.0878L29.5386 52.9549V115.957L51.0334 118.004L75.5984 115.957L77.6455 72.1485L72.5278 34.5063L51.9319 39.0878Z" fill="#ECF1FD"/>
<path d="M121.658 52.9546L100.164 39.3946L78.6693 34.5061L75.5986 115.956L100.164 118.003L121.658 115.956V52.9546Z" fill="#DBE3FD"/>
<path d="M63.3157 38.4591V61.9558L59.3454 65.9274L55.0024 61.5842L57.1744 59.4133V41.0937L59.5286 38.4591H63.3157Z" fill="#98DBFD"/>
<path d="M95.9669 65.7341L91.8516 65.9276L87.8809 61.9558V38.4591L91.3268 38.6612L94.0222 41.0937V59.4133L96.1944 61.5844L95.9669 65.7341Z" fill="#65B0FB"/>
<path d="M55.0024 92.2912L57.1742 90.1192V80.3803L55.0033 78.2093L59.3452 73.8662L63.3155 77.8366V92.6629L59.345 96.6335L55.0024 92.2912Z" fill="#98DBFD"/>
<path d="M95.9499 95.7412L91.852 96.6339L87.8809 92.6629V77.8366L91.8514 73.8662L95.421 75.0996L96.1939 78.2085L94.0222 80.3803V90.1192L96.1939 92.2912L95.9499 95.7412Z" fill="#65B0FB"/>
<path d="M51.0328 109.815C45.9533 109.815 41.8208 105.683 41.8208 100.603C41.8208 95.5234 45.9533 91.3911 51.0328 91.3911C56.1123 91.3911 60.2447 95.5234 60.2447 100.603C60.2447 105.683 56.1125 109.815 51.0328 109.815Z" fill="#4D5E7F"/>
<path d="M100.163 109.815C95.0835 109.815 90.9512 105.683 90.9512 100.603C90.9512 95.5234 95.0835 91.3911 100.163 91.3911C105.243 91.3911 109.375 95.5234 109.375 100.603C109.375 105.683 105.243 109.815 100.163 109.815Z" fill="#3D4566"/>
<path d="M51.0328 79.1084C45.9533 79.1084 41.8208 74.9761 41.8208 69.8964C41.8208 64.8169 45.9533 60.6844 51.0328 60.6844C56.1123 60.6844 60.2447 64.8169 60.2447 69.8964C60.2447 74.9761 56.1125 79.1084 51.0328 79.1084Z" fill="#4D5E7F"/>
<path d="M100.163 79.1084C95.0835 79.1084 90.9512 74.9761 90.9512 69.8964C90.9512 64.8169 95.0835 60.6844 100.163 60.6844C105.243 60.6844 109.375 64.8169 109.375 69.8964C109.375 74.9761 105.243 79.1084 100.163 79.1084Z" fill="#3D4566"/>
<path d="M72.5273 34.5061V61.2108L74.165 61.7719L75.598 60.6845L77.6451 48.4715L75.598 33.1878L73.8422 31.8944L72.5273 34.5061Z" fill="#98DBFD"/>
<path d="M78.6688 34.5062L77.1335 31.7999L75.5981 33.1879V60.6846L76.9032 61.9896L78.6688 61.2107V34.5062Z" fill="#65B0FB"/>
<path d="M29.5386 115.956V122.098H75.5984L77.6455 119.027L75.5984 115.956H29.5386Z" fill="#DBE3FD"/>
<path d="M75.5981 115.956H121.658V122.098H75.5981V115.956Z" fill="#C3D3FC"/>
<path d="M118.587 17.6953H106.305V30.9782L111.576 35.3346L118.587 36.2359V17.6953Z" fill="#CC295F"/>
<path d="M23.397 40.1792V55.5325L75.5981 33.1872L77.6453 25.8325L75.5981 17.8339L23.397 40.1792Z" fill="#FF6C6C"/>
<path d="M75.5981 17.8339V33.1872L127.799 55.5325V40.1792L75.5981 17.8339Z" fill="#FF3377"/>
<path d="M72.5273 91.9174L74.1523 92.632L75.598 91.3911L77.6451 85.2497L75.598 79.1084L74.2162 77.9995L72.5273 78.5821V91.9174Z" fill="#98DBFD"/>
<path d="M76.8946 92.2611L78.6688 91.9172V78.5821L76.8776 77.9995L75.5981 79.1084V91.3911L76.8946 92.2611Z" fill="#65B0FB"/>
<path d="M66.3862 100.603C66.3862 105.683 70.5185 109.815 75.5982 109.815L77.6453 101.217L75.5982 91.3911C70.5185 91.3911 66.3862 95.5234 66.3862 100.603Z" fill="#4D5E7F"/>
<path d="M75.5981 91.3911V109.815C80.6778 109.815 84.8101 105.683 84.8101 100.603C84.8101 95.5234 80.6778 91.3911 75.5981 91.3911Z" fill="#3D4566"/>
<path d="M66.3862 69.8964C66.3862 74.9761 70.5185 79.1084 75.5982 79.1084L77.6453 70.1693L75.5982 60.6844C70.5185 60.6844 66.3862 64.8169 66.3862 69.8964Z" fill="#4D5E7F"/>
<path d="M84.8101 69.8964C84.8101 64.8169 80.6778 60.6844 75.5981 60.6844V79.1084C80.6778 79.1084 84.8101 74.9761 84.8101 69.8964Z" fill="#3D4566"/>
</svg>
