<svg width="145" height="144" viewBox="0 0 145 144" fill="none" xmlns="http://www.w3.org/2000/svg">
<path d="M40.0073 83.0238C38.2379 83.0238 36.8061 81.592 36.8061 79.8227C36.8061 78.0533 38.2379 76.6215 40.0073 76.6215C41.7735 76.6215 43.2084 75.1865 43.2084 73.4203C43.2084 71.6541 41.7735 70.2192 40.0073 70.2192H33.6049C24.7798 70.2192 17.5991 63.0385 17.5991 54.2133V41.4087C17.5991 39.6393 19.0309 38.2075 20.8003 38.2075H33.6049C35.3743 38.2075 36.8061 39.6393 36.8061 41.4087C36.8061 43.1781 35.3743 44.6098 33.6049 44.6098H24.0014V54.2133C24.0014 59.5089 28.3094 63.8168 33.6049 63.8168H40.0073C45.3028 63.8168 49.6108 68.1248 49.6108 73.4203C49.6108 78.7159 45.3028 83.0238 40.0073 83.0238Z" fill="#FABE2C"/>
<path d="M104.457 83.0238C99.1619 83.0238 94.854 78.7159 94.854 73.4203C94.854 68.1248 99.1619 63.8168 104.457 63.8168H110.86C116.155 63.8168 120.463 59.5089 120.463 54.2133V44.6098H110.86C109.09 44.6098 107.659 43.1781 107.659 41.4087C107.659 39.6393 109.09 38.2075 110.86 38.2075H123.664C125.434 38.2075 126.866 39.6393 126.866 41.4087V54.2133C126.866 63.0385 119.685 70.2192 110.86 70.2192H104.457C102.691 70.2192 101.256 71.6541 101.256 73.4203C101.256 75.1865 102.691 76.6215 104.457 76.6215C106.227 76.6215 107.659 78.0533 107.659 79.8227C107.659 81.592 106.227 83.0238 104.457 83.0238Z" fill="#FF9100"/>
<path d="M78.8481 102.231H65.6166C63.8472 102.231 62.4155 100.799 62.4155 99.0296C62.4155 89.9607 57.6982 81.4858 50.1016 76.7841C37.7626 69.0874 30.4038 55.8671 30.4038 41.4087V35.0063C30.4038 33.2369 31.8356 31.8052 33.605 31.8052H110.86C112.629 31.8052 114.061 33.2369 114.061 35.0063V41.4087C114.061 55.8671 106.702 69.0874 94.3725 76.7777C86.7665 81.4858 82.0493 89.9607 82.0493 98.9014C82.0493 100.671 80.6175 102.231 78.8481 102.231Z" fill="#FED843"/>
<path d="M72.2324 102.231H78.8482C80.6176 102.231 82.0493 100.671 82.0493 98.9014C82.0493 89.9605 86.7666 81.4858 94.3725 76.7777C106.702 69.0874 114.061 55.8671 114.061 41.4087V35.0063C114.061 33.2369 112.629 31.8052 110.86 31.8052H72.2324V102.231Z" fill="#FABE2C"/>
<path d="M81.8359 54.2134C81.8359 58.2468 79.2747 61.8961 75.4976 63.2404C75.4976 65.0333 74.0253 66.7617 72.2324 66.7617C70.5036 66.7617 69.0312 65.6093 69.0312 63.8168C69.0312 61.1277 70.2477 58.8868 72.2324 57.7346C72.5525 57.5424 72.9367 57.3505 73.3206 57.2222C74.601 56.7741 75.4336 55.5576 75.4336 54.2134C75.4336 52.4205 74.0253 51.0122 72.2324 51.0122C70.4395 51.0122 69.0312 52.4205 69.0312 54.2134C69.0312 56.0058 67.6229 57.4145 65.8301 57.4145C64.0372 57.4145 62.6289 56.0058 62.6289 54.2134C62.6289 48.8992 66.9183 44.6099 72.2324 44.6099C77.5465 44.6099 81.8359 48.8992 81.8359 54.2134Z" fill="#474F54"/>
<path d="M72.2319 76.6214C73.9999 76.6214 75.4331 75.1882 75.4331 73.4203C75.4331 71.6523 73.9999 70.2191 72.2319 70.2191C70.464 70.2191 69.0308 71.6523 69.0308 73.4203C69.0308 75.1882 70.464 76.6214 72.2319 76.6214Z" fill="#474F54"/>
<path d="M75.4336 73.4203C75.4336 71.652 74.0003 70.2191 72.2324 70.2191V76.6214C74.0003 76.6214 75.4336 75.1882 75.4336 73.4203Z" fill="#32393F"/>
<path d="M81.8359 54.2134C81.8359 58.2468 79.2748 61.8961 75.4976 63.2404C75.4976 65.0333 74.0253 66.7617 72.2324 66.7617V57.7346C72.5525 57.5424 72.9367 57.3505 73.3206 57.2222C74.6011 56.7741 75.4336 55.5576 75.4336 54.2134C75.4336 52.4205 74.0253 51.0122 72.2324 51.0122V44.6099C77.5466 44.6099 81.8359 48.8992 81.8359 54.2134Z" fill="#32393F"/>
<path d="M91.6528 118.237H52.812C51.0426 118.237 49.6108 116.805 49.6108 115.035V102.231C49.6108 100.461 51.0426 99.0297 52.812 99.0297H91.6528C93.4222 99.0297 94.854 100.461 94.854 102.231V115.035C94.854 116.805 93.4222 118.237 91.6528 118.237Z" fill="#575F64"/>
<path d="M72.2324 118.237H91.6528C93.4222 118.237 94.854 116.805 94.854 115.035V102.231C94.854 100.461 93.4222 99.0297 91.6528 99.0297H72.2324V118.237Z" fill="#474F54"/>
<path d="M98.0551 102.231H46.4097C44.6403 102.231 43.2085 100.799 43.2085 99.0297C43.2085 97.2603 44.6403 95.8285 46.4097 95.8285H98.0551C99.8245 95.8285 101.256 97.2603 101.256 99.0297C101.256 100.799 99.8245 102.231 98.0551 102.231Z" fill="#474F54"/>
<path d="M98.0551 121.438H46.4097C44.6403 121.438 43.2085 120.006 43.2085 118.237C43.2085 116.467 44.6403 115.036 46.4097 115.036H98.0551C99.8245 115.036 101.256 116.467 101.256 118.237C101.256 120.006 99.8245 121.438 98.0551 121.438Z" fill="#474F54"/>
<path d="M72.2324 121.438H98.0551C99.8245 121.438 101.256 120.006 101.256 118.237C101.256 116.467 99.8245 115.035 98.0551 115.035H72.2324V121.438Z" fill="#32393F"/>
<path d="M72.2329 102.231H98.0556C99.825 102.231 101.257 100.799 101.257 99.0297C101.257 97.2603 99.825 95.8285 98.0556 95.8285H72.2329V102.231Z" fill="#32393F"/>
</svg>
