<svg width="143" height="143" viewBox="0 0 143 143" fill="none" xmlns="http://www.w3.org/2000/svg">
<path d="M71.4843 124.908C101.606 124.908 126.025 100.489 126.025 70.3673C126.025 40.2454 101.606 15.8268 71.4843 15.8268C41.3624 15.8268 16.9438 40.2454 16.9438 70.3673C16.9438 100.489 41.3624 124.908 71.4843 124.908Z" fill="#FFF59D"/>
<path d="M106.936 70.3673C106.936 49.3693 88.9375 32.7344 67.394 35.1887C51.0319 37.0976 37.9421 50.1874 36.3059 66.5495C34.9424 79.0938 40.1238 90.2746 48.8502 97.3649C52.6681 100.637 55.1224 105.273 55.1224 110.455V111.273H87.8467V111C87.8467 106.091 90.0283 101.183 93.8461 97.9103C101.754 91.3654 106.936 81.5481 106.936 70.3673Z" fill="#FBC02D"/>
<path d="M89.4833 65.4581L81.3022 60.004C80.4841 59.4586 79.1206 59.4586 78.3025 60.004L71.4849 64.3673L64.9401 60.004C64.122 59.4586 62.7584 59.4586 61.9403 60.004L53.7593 65.4581C53.2139 66.0035 52.6685 66.5489 52.6685 67.367C52.6685 68.1851 52.6685 69.0032 53.2139 69.5486L63.5765 82.3656V111.272H69.0306V81.2748C69.0306 80.7294 68.7579 80.184 68.4852 79.6386L59.486 68.4578L63.5765 65.7308L70.1214 70.094C70.9395 70.6394 72.303 70.6394 73.1211 70.094L79.666 65.7308L83.7565 68.4578L74.7573 79.6386C74.4846 80.184 74.2119 80.7294 74.2119 81.2748V111.272H79.666V82.3656L90.0287 69.5486C90.5741 69.0032 90.8468 68.1851 90.5741 67.367C90.3014 66.5489 90.0287 65.7308 89.4833 65.4581Z" fill="#FFF59D"/>
<path d="M71.4843 138.543C76.0026 138.543 79.6654 134.88 79.6654 130.362C79.6654 125.843 76.0026 122.181 71.4843 122.181C66.966 122.181 63.3032 125.843 63.3032 130.362C63.3032 134.88 66.966 138.543 71.4843 138.543Z" fill="#5C6BC0"/>
<path d="M76.9383 133.089H66.0302C60.0307 133.089 55.1221 128.18 55.1221 122.181V108.546H87.8464V122.181C87.8464 128.18 82.9377 133.089 76.9383 133.089Z" fill="#9FA8DA"/>
<path d="M87.8464 122.181L56.2129 126.544C57.031 128.453 58.6672 130.362 60.5761 131.453L86.2101 127.907C87.301 126.271 87.8464 124.362 87.8464 122.181Z" fill="#5C6BC0"/>
<path d="M55.1221 115.909V121.363L87.8464 116.727V111.273L55.1221 115.909Z" fill="#5C6BC0"/>
</svg>
