<svg width="153" height="153" viewBox="0 0 153 153" fill="none" xmlns="http://www.w3.org/2000/svg">
<path d="M131.585 58.1568V112.464C131.585 117.774 127.281 122.079 121.97 122.079H35.3574V58.1568C35.3574 52.8473 39.6618 48.5419 44.9724 48.5419H121.97C127.281 48.5419 131.585 52.8473 131.585 58.1568ZM96.5797 85.5528L82.3115 58.5947L68.0432 85.5528L72.4514 101.481H69.4783V112.93H95.1446V101.481H92.5007V101.43L96.5797 85.5528Z" fill="white"/>
<path d="M82.3117 78.8121C80.4417 78.8111 78.9245 80.3273 78.9236 82.1973C78.9226 84.0673 80.4387 85.5845 82.3088 85.5854C84.1798 85.5864 85.6969 84.0703 85.6969 82.2002C85.6979 80.3292 84.1817 78.8131 82.3117 78.8121ZM82.3117 58.5947L96.58 85.5528L92.501 101.43V101.481H72.4516L68.0435 85.5528L82.3117 58.5947Z" fill="#00ACEA"/>
<path d="M72.4516 101.481H95.1448V112.93H69.4785V101.481H72.4516Z" fill="#FEDB41"/>
<path d="M82.3115 78.812C84.1815 78.811 85.6987 80.3272 85.6996 82.1972C85.7006 84.0672 84.1845 85.5844 82.3144 85.5854C80.4434 85.5864 78.9263 84.0702 78.9263 82.2002C78.9253 80.3292 80.4415 78.813 82.3115 78.812Z" fill="#FEDB41"/>
<path d="M65.5742 34.2587L77.2282 48.5418H44.9724C39.6619 48.5418 35.3575 52.8472 35.3575 58.1568V122.079H32.0256C26.715 122.079 22.4106 117.774 22.4106 112.464V40.3363C22.4106 35.0267 26.715 30.7213 32.0256 30.7213H58.1248C61.0129 30.7223 63.7487 32.021 65.5742 34.2587Z" fill="#00ACEA"/>
</svg>
