<svg width="153" height="153" viewBox="0 0 153 153" fill="none" xmlns="http://www.w3.org/2000/svg">
<path d="M131.585 58.1568V112.464C131.585 117.774 127.281 122.079 121.97 122.079H35.3574V58.1568C35.3574 52.8473 39.6618 48.5419 44.9724 48.5419H121.97C127.281 48.5419 131.585 52.8473 131.585 58.1568ZM96.5797 85.5528L82.3115 58.5947L68.0432 85.5528L72.4514 101.481H69.4783V112.93H95.1446V101.481H92.5007V101.43L96.5797 85.5528Z" fill="white"/>
<path d="M82.3117 78.8121C80.4417 78.8111 78.9245 80.3273 78.9236 82.1973C78.9226 84.0673 80.4387 85.5845 82.3088 85.5854C84.1798 85.5864 85.6969 84.0703 85.6969 82.2002C85.6979 80.3292 84.1817 78.8131 82.3117 78.8121ZM82.3117 58.5947L96.58 85.5528L92.501 101.43V101.481H72.4516L68.0435 85.5528L82.3117 58.5947Z" fill="#00ACEA"/>
<path d="M72.4516 101.481H95.1448V112.93H69.4785V101.481H72.4516Z" fill="#FEDB41"/>
<path d="M82.3115 78.812C84.1815 78.811 85.6987 80.3272 85.6996 82.1972C85.7006 84.0672 84.1845 85.5844 82.3144 85.5854C80.4434 85.5864 78.9263 84.0702 78.9263 82.2002C78.9253 80.3292 80.4415 78.813 82.3115 78.812Z" fill="#FEDB41"/>
<path d="M65.5742 34.2587L77.2282 48.5418H44.9724C39.6619 48.5418 35.3575 52.8472 35.3575 58.1568V122.079H32.0256C26.715 122.079 22.4106 117.774 22.4106 112.464V40.3363C22.4106 35.0267 26.715 30.7213 32.0256 30.7213H58.1248C61.0129 30.7223 63.7487 32.021 65.5742 34.2587Z" fill="#00ACEA"/>
<path d="M121.97 46.5433H78.189L67.1429 32.9323C64.9447 30.1994 61.6327 28.6002 58.1249 28.5785H32.0257C25.6082 28.5785 20.3203 33.9187 20.3203 40.3363V112.464C20.3203 118.883 25.6082 124.222 32.0257 124.222H121.97C128.388 124.222 133.676 118.883 133.676 112.464V58.1568C133.676 51.7392 128.388 46.5433 121.97 46.5433ZM33.2246 58.1568V120.174H32.0257C27.8399 120.174 24.3687 116.649 24.3687 112.464V40.3363C24.3687 36.1515 27.8399 32.6269 32.0257 32.6269H58.1249C60.416 32.6506 62.5746 33.7023 64.0058 35.4922L72.9645 46.5433H44.9725C38.555 46.5433 33.2246 51.7392 33.2246 58.1568ZM129.627 112.464C129.627 116.649 126.156 120.174 121.97 120.174H37.273V58.1568C37.273 53.972 40.7867 50.5917 44.9725 50.5917H121.97C126.156 50.5917 129.627 53.972 129.627 58.1568V112.464Z" fill="#083863"/>
<path d="M84.1007 57.6479C83.7499 56.9857 83.0619 56.5715 82.3118 56.5715C81.5616 56.5715 80.8737 56.9857 80.5228 57.6479L66.2545 84.606C66.0134 85.0567 65.955 85.5845 66.0924 86.0767L69.791 99.4258H69.4786C68.341 99.4347 67.4139 100.343 67.3833 101.481V112.93C67.3833 114.048 68.3608 114.86 69.4786 114.86H95.1449C96.2628 114.86 97.2403 114.048 97.2403 112.93V101.481C97.2096 100.343 96.2825 99.4347 95.1449 99.4258H95.0975L98.54 86.0411C98.6655 85.5558 98.6042 85.0409 98.369 84.5981L84.1007 57.6479ZM83.6728 82.2003C83.6718 82.9514 83.0619 83.5593 82.3098 83.5583C81.5586 83.5573 80.9498 82.9475 80.9508 82.1963C80.9508 81.4451 81.5606 80.8363 82.3118 80.8363C83.0639 80.8373 83.6738 81.4471 83.6728 82.2003ZM93.1919 110.812H71.4317V103.474H93.1919V110.812ZM73.9916 99.4258L70.209 85.7733L80.2876 66.7469V77.1852C77.8858 78.1538 76.508 80.69 77.0012 83.2321C77.4944 85.7752 79.7212 87.6116 82.3118 87.6116C84.9023 87.6116 87.1291 85.7752 87.6223 83.2321C88.1155 80.69 86.7377 78.1538 84.336 77.1852V66.7469L94.4244 85.792L90.9186 99.4258H73.9916Z" fill="#083863"/>
</svg>
